<?xml version="1.0" encoding="UTF-8"?>
<svg width="348px" height="401px" viewBox="0 0 348 401" version="1.1" xmlns="http://www.w3.org/2000/svg" xmlns:xlink="http://www.w3.org/1999/xlink">
    <!-- Generator: Sketch 49.2 (51160) - http://www.bohemiancoding.com/sketch -->
    <title>Nor'eastR (single color)</title>
    <desc>Created with Sketch.</desc>
    <defs>
        <polygon id="path-1" points="173.638093 0 347.276187 100.25 347.276187 300.75 173.638093 401 7.46069873e-14 300.75 -3.55271368e-14 100.25"></polygon>
    </defs>
    <g id="Version-1-(single-color)" stroke="none" stroke-width="1" fill="none" fill-rule="evenodd">
        <g id="Nor'eastR-(single-color)">
            <mask id="mask-2" fill="white">
                <use xlink:href="#path-1"></use>
            </mask>
            <g id="Polygon">
                <use fill="#FFFFFF" fill-rule="evenodd" xlink:href="#path-1"></use>
                <path stroke="#4F93D9" stroke-width="17" d="M173.638093,9.81495458 L8.5,105.157477 L8.5,295.842523 L173.638093,391.185045 L338.776187,295.842523 L338.776187,105.157477 L173.638093,9.81495458 Z"></path>
            </g>
            <path d="M225,142.617647 C225,190.325303 187.880336,229 142.090909,229 C139.309078,229 136.559246,228.857256 133.847793,228.578415 C151.896971,226.196276 169.781212,197.588235 168,197.588235 C136.519769,197.588235 111,171.805104 111,140 C111,139.618802 111.003666,139.238469 111.010964,138.859035 C111.003679,138.373189 111,137.880981 111,137.382353 C111,89.6746968 148.119664,51 193.909091,51 C196.690922,51 199.440754,51.142744 202.152207,51.4215855 C184.103029,53.803724 166.218788,82.4117647 168,82.4117647 C199.480231,82.4117647 225,108.194896 225,140 C225,140.381199 224.996334,140.761533 224.989036,141.140968 C224.996321,141.626811 225,142.119019 225,142.617647 Z M168,157.45098 C177.539464,157.45098 185.272727,149.63791 185.272727,140 C185.272727,130.36209 177.539464,122.54902 168,122.54902 C158.460536,122.54902 150.727273,130.36209 150.727273,140 C150.727273,149.63791 158.460536,157.45098 168,157.45098 Z" id="Combined-Shape" fill="#4F93D9" mask="url(#mask-2)" transform="translate(168.000000, 140.000000) rotate(135.000000) translate(-168.000000, -140.000000) "></path>
            <path d="M225,142.617647 C225,190.325303 187.880336,229 142.090909,229 C139.309078,229 136.559246,228.857256 133.847793,228.578415 C151.896971,226.196276 169.781212,197.588235 168,197.588235 C136.519769,197.588235 111,171.805104 111,140 C111,139.618802 111.003666,139.238469 111.010964,138.859035 C111.003679,138.373189 111,137.880981 111,137.382353 C111,89.6746968 148.119664,51 193.909091,51 C196.690922,51 199.440754,51.142744 202.152207,51.4215855 C184.103029,53.803724 166.218788,82.4117647 168,82.4117647 C199.480231,82.4117647 225,108.194896 225,140 C225,140.381199 224.996334,140.761533 224.989036,141.140968 C224.996321,141.626811 225,142.119019 225,142.617647 Z M168,157.45098 C177.539464,157.45098 185.272727,149.63791 185.272727,140 C185.272727,130.36209 177.539464,122.54902 168,122.54902 C158.460536,122.54902 150.727273,130.36209 150.727273,140 C150.727273,149.63791 158.460536,157.45098 168,157.45098 Z" id="Combined-Shape" fill="#4F93D9" mask="url(#mask-2)" transform="translate(168.000000, 140.000000) rotate(90.000000) translate(-168.000000, -140.000000) "></path>
            <path d="M225,142.617647 C225,190.325303 187.880336,229 142.090909,229 C139.309078,229 136.559246,228.857256 133.847793,228.578415 C151.896971,226.196276 169.781212,197.588235 168,197.588235 C136.519769,197.588235 111,171.805104 111,140 C111,139.618802 111.003666,139.238469 111.010964,138.859035 C111.003679,138.373189 111,137.880981 111,137.382353 C111,89.6746968 148.119664,51 193.909091,51 C196.690922,51 199.440754,51.142744 202.152207,51.4215855 C184.103029,53.803724 166.218788,82.4117647 168,82.4117647 C199.480231,82.4117647 225,108.194896 225,140 C225,140.381199 224.996334,140.761533 224.989036,141.140968 C224.996321,141.626811 225,142.119019 225,142.617647 Z M168,157.45098 C177.539464,157.45098 185.272727,149.63791 185.272727,140 C185.272727,130.36209 177.539464,122.54902 168,122.54902 C158.460536,122.54902 150.727273,130.36209 150.727273,140 C150.727273,149.63791 158.460536,157.45098 168,157.45098 Z" id="Combined-Shape" fill="#4F93D9" mask="url(#mask-2)" transform="translate(168.000000, 140.000000) rotate(45.000000) translate(-168.000000, -140.000000) "></path>
            <path d="M225,142.617647 C225,190.325303 187.880336,229 142.090909,229 C139.309078,229 136.559246,228.857256 133.847793,228.578415 C151.896971,226.196276 169.781212,197.588235 168,197.588235 C136.519769,197.588235 111,171.805104 111,140 C111,139.618802 111.003666,139.238469 111.010964,138.859035 C111.003679,138.373189 111,137.880981 111,137.382353 C111,89.6746968 148.119664,51 193.909091,51 C196.690922,51 199.440754,51.142744 202.152207,51.4215855 C184.103029,53.803724 166.218788,82.4117647 168,82.4117647 C199.480231,82.4117647 225,108.194896 225,140 C225,140.381199 224.996334,140.761533 224.989036,141.140968 C224.996321,141.626811 225,142.119019 225,142.617647 Z M168,157.45098 C177.539464,157.45098 185.272727,149.63791 185.272727,140 C185.272727,130.36209 177.539464,122.54902 168,122.54902 C158.460536,122.54902 150.727273,130.36209 150.727273,140 C150.727273,149.63791 158.460536,157.45098 168,157.45098 Z" id="Combined-Shape" fill="#4F93D9" mask="url(#mask-2)"></path>
            <path d="M39.1445312,282 L39.1445312,241.53125 L46.5546875,241.53125 L65.3125,269.175781 L65.3125,241.53125 L72.0664062,241.53125 L72.0664062,282 L64.5195312,282 L45.8984375,254.355469 L45.8984375,282 L39.1445312,282 Z M94.7890625,282.683594 C90.1041432,282.683594 86.3808732,281.26629 83.6191406,278.431641 C80.8574081,275.596991 79.4765625,271.782576 79.4765625,266.988281 C79.4765625,262.139299 80.8665226,258.311212 83.6464844,255.503906 C86.4264462,252.696601 90.2044032,251.292969 94.9804688,251.292969 C99.7747636,251.292969 103.561835,252.696601 106.341797,255.503906 C109.121759,258.311212 110.511719,262.12107 110.511719,266.933594 C110.511719,271.855493 109.117201,275.710924 106.328125,278.5 C103.539049,281.289076 99.6927329,282.683594 94.7890625,282.683594 Z M94.9257812,277.625 C99.574242,277.625 101.898438,274.061234 101.898438,266.933594 C101.898438,263.670557 101.283209,261.091155 100.052734,259.195312 C98.8222595,257.29947 97.1315212,256.351562 94.9804688,256.351562 C92.8476456,256.351562 91.1660218,257.29947 89.9355469,259.195312 C88.705072,261.091155 88.0898438,263.688786 88.0898438,266.988281 C88.0898438,270.251318 88.7005147,272.839834 89.921875,274.753906 C91.1432353,276.667978 92.8111873,277.625 94.9257812,277.625 Z M117.949219,282 L117.949219,251.976562 L126.042969,251.976562 L126.042969,257.636719 C128.139333,253.407531 131.329406,251.292969 135.613281,251.292969 C136.1237,251.292969 136.624998,251.347656 137.117188,251.457031 L137.117188,258.675781 C135.968744,258.256508 134.902349,258.046875 133.917969,258.046875 C130.69139,258.046875 128.066416,259.678369 126.042969,262.941406 L126.042969,282 L117.949219,282 Z M142.75,255.695312 L141.054688,238.824219 L149.832031,238.824219 L147.808594,255.695312 L142.75,255.695312 Z M181.6875,280.988281 C177.841127,282.118495 174.19533,282.683594 170.75,282.683594 C165.736954,282.683594 161.781264,281.261733 158.882812,278.417969 C155.984361,275.574205 154.535156,271.691431 154.535156,266.769531 C154.535156,262.121071 155.861315,258.379571 158.513672,255.544922 C161.166029,252.710272 164.670551,251.292969 169.027344,251.292969 C173.420595,251.292969 176.628896,252.678372 178.652344,255.449219 C180.675791,258.220066 181.6875,262.604137 181.6875,268.601562 L163.066406,268.601562 C163.613284,274.325549 166.757784,277.1875 172.5,277.1875 C175.216159,277.1875 178.278629,276.5586 181.6875,275.300781 L181.6875,280.988281 Z M162.957031,264.035156 L173.730469,264.035156 C173.730469,258.912735 172.080746,256.351562 168.78125,256.351562 C165.427067,256.351562 163.48568,258.912735 162.957031,264.035156 Z M204.765625,278.773438 C202.067695,281.380221 199.178401,282.683594 196.097656,282.683594 C193.472643,282.683594 191.339852,281.881518 189.699219,280.277344 C188.058586,278.673169 187.238281,276.595065 187.238281,274.042969 C187.238281,270.725244 188.56444,268.168629 191.216797,266.373047 C193.869154,264.577465 197.66534,263.679688 202.605469,263.679688 L204.765625,263.679688 L204.765625,260.945312 C204.765625,257.828109 202.988299,256.269531 199.433594,256.269531 C196.279932,256.269531 193.08986,257.162751 189.863281,258.949219 L189.863281,253.371094 C193.527362,251.98567 197.15493,251.292969 200.746094,251.292969 C208.602904,251.292969 212.53125,254.41924 212.53125,260.671875 L212.53125,273.960938 C212.53125,276.312512 213.287753,277.488281 214.800781,277.488281 C215.07422,277.488281 215.429685,277.451823 215.867188,277.378906 L216.058594,281.917969 C214.345044,282.428388 212.832038,282.683594 211.519531,282.683594 C208.201806,282.683594 206.069015,281.380221 205.121094,278.773438 L204.765625,278.773438 Z M204.765625,274.425781 L204.765625,268.328125 L202.851562,268.328125 C197.619766,268.328125 195.003906,269.968734 195.003906,273.25 C195.003906,274.361985 195.382158,275.29622 196.138672,276.052734 C196.895186,276.809249 197.829422,277.1875 198.941406,277.1875 C200.837249,277.1875 202.778636,276.266936 204.765625,274.425781 Z M222.183594,281.042969 L222.183594,275.109375 C226.19403,276.786467 229.62108,277.625 232.464844,277.625 C235.782569,277.625 237.441406,276.494803 237.441406,274.234375 C237.441406,272.776034 236.074232,271.500005 233.339844,270.40625 L230.605469,269.3125 C227.6341,268.109369 225.510423,266.815111 224.234375,265.429688 C222.958327,264.044264 222.320313,262.330739 222.320313,260.289062 C222.320313,257.445298 223.404937,255.235034 225.574219,253.658203 C227.7435,252.081372 230.778626,251.292969 234.679688,251.292969 C237.122408,251.292969 240.029931,251.648434 243.402344,252.359375 L243.402344,258.046875 C240.157536,256.916661 237.468761,256.351562 235.335938,256.351562 C231.981754,256.351562 230.304688,257.390615 230.304688,259.46875 C230.304688,260.835944 231.544258,261.993485 234.023438,262.941406 L236.375,263.84375 C239.893247,265.174486 242.340488,266.523431 243.716797,267.890625 C245.093106,269.257819 245.78125,271.016916 245.78125,273.167969 C245.78125,275.993504 244.610038,278.285798 242.267578,280.044922 C239.925118,281.804045 236.876321,282.683594 233.121094,282.683594 C229.511701,282.683594 225.865904,282.136724 222.183594,281.042969 Z M270.117188,281.835938 C268.184886,282.401044 266.662766,282.683594 265.550781,282.683594 C258.532517,282.683594 255.023438,279.402377 255.023438,272.839844 L255.023438,257.035156 L251.660156,257.035156 L251.660156,251.976562 L255.023438,251.976562 L255.023438,246.917969 L263.117188,245.988281 L263.117188,251.976562 L269.542969,251.976562 L269.542969,257.035156 L263.117188,257.035156 L263.117188,271.773438 C263.117188,275.455748 264.621079,277.296875 267.628906,277.296875 C268.321618,277.296875 269.151037,277.169272 270.117188,276.914062 L270.117188,281.835938 Z M277.335938,282 L277.335938,241.53125 L292.484375,241.53125 C300.70577,241.53125 304.816406,244.876269 304.816406,251.566406 C304.816406,254.063815 304.119148,256.33788 302.724609,258.388672 C301.330071,260.439463 299.411471,262.011713 296.96875,263.105469 L310.203125,282 L299.949219,282 L289.914062,265.457031 L285.265625,265.457031 L285.265625,282 L277.335938,282 Z M285.265625,259.90625 L287.207031,259.90625 C293.313833,259.90625 296.367188,257.436223 296.367188,252.496094 C296.367188,248.886701 293.641954,247.082031 288.191406,247.082031 L285.265625,247.082031 L285.265625,259.90625 Z" id="Nor'eastR-Copy" fill="#4F93D9" mask="url(#mask-2)"></path>
            <path d="M37.5,288.5 L310.5,288.5" id="Line" stroke="#4F93D9" stroke-width="3" stroke-linecap="square" mask="url(#mask-2)"></path>
            <path d="M37.5,293.5 L310.5,293.5" id="Line" stroke="#4F93D9" stroke-width="3" stroke-linecap="square" mask="url(#mask-2)"></path>
            <path d="M148.355469,337 L148.355469,333.621094 L154.136719,333.621094 L154.136719,312.292969 L148.355469,313.738281 L148.355469,310.261719 L159.9375,307.371094 L159.9375,333.621094 L165.71875,333.621094 L165.71875,337 L148.355469,337 Z M177.671875,321.511719 C174.885403,319.675772 173.492188,317.462253 173.492188,314.871094 C173.492188,312.631499 174.371085,310.818366 176.128906,309.431641 C177.886728,308.044915 180.191392,307.351562 183.042969,307.351562 C185.725274,307.351562 187.870435,307.944004 189.478516,309.128906 C191.086597,310.313808 191.890625,311.895823 191.890625,313.875 C191.890625,316.427096 190.263037,318.842437 187.007812,321.121094 C191.122416,323.269542 193.179688,325.971338 193.179688,329.226562 C193.179688,331.765638 192.177093,333.816398 190.171875,335.378906 C188.166657,336.941414 185.536475,337.722656 182.28125,337.722656 C179.169255,337.722656 176.659515,337.006518 174.751953,335.574219 C172.844392,334.14192 171.890625,332.253918 171.890625,329.910156 C171.890625,326.511702 173.817689,323.712251 177.671875,321.511719 Z M184,319.480469 C185.927093,317.983065 186.890625,316.381519 186.890625,314.675781 C186.890625,313.555984 186.493494,312.660811 185.699219,311.990234 C184.904944,311.319658 183.856777,310.984375 182.554688,310.984375 C181.343744,310.984375 180.363936,311.277341 179.615234,311.863281 C178.866533,312.449222 178.492188,313.217443 178.492188,314.167969 C178.492188,315.105473 178.863278,315.929033 179.605469,316.638672 C180.34766,317.348311 181.812489,318.295567 184,319.480469 Z M180.523438,323.445312 C178.427073,325.190113 177.378906,327.032542 177.378906,328.972656 C177.378906,330.48308 177.90299,331.726558 178.951172,332.703125 C179.999354,333.679692 181.330721,334.167969 182.945312,334.167969 C184.36459,334.167969 185.55273,333.783858 186.509766,333.015625 C187.466802,332.247392 187.945312,331.29037 187.945312,330.144531 C187.945312,329.154943 187.62305,328.308597 186.978516,327.605469 C186.333981,326.90234 185.080738,326.023443 183.21875,324.96875 L180.523438,323.445312 Z M198.648438,318.210938 L197.4375,306.160156 L203.707031,306.160156 L202.261719,318.210938 L198.648438,318.210938 Z M208.53125,318.210938 L207.320312,306.160156 L213.589844,306.160156 L212.144531,318.210938 L208.53125,318.210938 Z" id="18''-copy" fill="#4F93D9" mask="url(#mask-2)"></path>
            <path d="M178.212422,358.975021 C178.872581,358.975021 179.412615,359.14787 179.832539,359.493575 C180.252463,359.83928 180.462422,360.412517 180.462422,361.213302 L180.462422,365.514083 L178.751484,365.514083 L178.751484,361.629317 C178.751484,361.293378 178.706563,361.035568 178.616719,360.85588 C178.452655,360.527753 178.140158,360.363692 177.679219,360.363692 C177.11281,360.363692 176.724142,360.603924 176.513203,361.084396 C176.403827,361.338303 176.349141,361.662519 176.349141,362.057052 L176.349141,365.514083 L174.685078,365.514083 L174.685078,359.139083 L176.296406,359.139083 L176.296406,360.070724 C176.511251,359.742597 176.714374,359.506271 176.905781,359.361739 C177.249533,359.103926 177.685075,358.975021 178.212422,358.975021 Z M184.868672,364.336349 C185.356955,364.336349 185.731952,364.162522 185.993672,363.814864 C186.255392,363.467206 186.38625,362.973071 186.38625,362.332442 C186.38625,361.691814 186.255392,361.198655 185.993672,360.85295 C185.731952,360.507245 185.356955,360.334396 184.868672,360.334396 C184.380388,360.334396 184.004415,360.507245 183.740742,360.85295 C183.477069,361.198655 183.345234,361.691814 183.345234,362.332442 C183.345234,362.973071 183.477069,363.467206 183.740742,363.814864 C184.004415,364.162522 184.380388,364.336349 184.868672,364.336349 Z M188.138203,362.332442 C188.138203,363.269947 187.868674,364.071697 187.329609,364.737716 C186.790544,365.403735 185.972193,365.736739 184.874531,365.736739 C183.776869,365.736739 182.958518,365.403735 182.419453,364.737716 C181.880388,364.071697 181.610859,363.269947 181.610859,362.332442 C181.610859,361.410563 181.880388,360.611743 182.419453,359.935958 C182.958518,359.260173 183.776869,358.922286 184.874531,358.922286 C185.972193,358.922286 186.790544,359.260173 187.329609,359.935958 C187.868674,360.611743 188.138203,361.410563 188.138203,362.332442 Z M192.802266,358.975021 C192.833516,358.975021 192.859883,358.975997 192.881367,358.97795 C192.902852,358.979903 192.950703,358.982833 193.024922,358.986739 L193.024922,360.697677 C192.919452,360.685958 192.825703,360.678146 192.743672,360.674239 C192.66164,360.670333 192.595235,360.66838 192.544453,360.66838 C191.872575,360.66838 191.421407,360.887128 191.190937,361.32463 C191.062031,361.570725 190.997578,361.949627 190.997578,362.461349 L190.997578,365.514083 L189.315937,365.514083 L189.315937,359.127364 L190.909687,359.127364 L190.909687,360.240646 C191.167501,359.814862 191.392108,359.52385 191.583516,359.367599 C191.896017,359.105879 192.302263,358.975021 192.802266,358.975021 Z M196.522969,360.334396 C196.136248,360.334396 195.836446,360.455488 195.623555,360.697677 C195.410663,360.939866 195.276875,361.267987 195.222187,361.682052 L197.817891,361.682052 C197.790547,361.240643 197.656759,360.905686 197.416523,360.677169 C197.176288,360.448652 196.878439,360.334396 196.522969,360.334396 Z M196.522969,358.957442 C197.054221,358.957442 197.532732,359.057051 197.958516,359.256271 C198.384299,359.45549 198.735858,359.76994 199.013203,360.19963 C199.263204,360.578538 199.425312,361.017987 199.499531,361.517989 C199.5425,361.81096 199.560078,362.23283 199.552266,362.783614 L195.181172,362.783614 C195.204609,363.424243 195.405779,363.873457 195.784687,364.131271 C196.015157,364.291428 196.292498,364.371505 196.616719,364.371505 C196.96047,364.371505 197.239764,364.27385 197.454609,364.078536 C197.571797,363.973067 197.675312,363.826584 197.765156,363.639083 L199.470234,363.639083 C199.427265,364.017991 199.230002,364.402753 198.878437,364.79338 C198.33156,365.414477 197.565942,365.725021 196.581562,365.725021 C195.769058,365.725021 195.052269,365.463304 194.431172,364.939864 C193.810075,364.416424 193.499531,363.56487 193.499531,362.385177 C193.499531,361.279703 193.779802,360.432055 194.340351,359.842208 C194.900901,359.252361 195.628433,358.957442 196.522969,358.957442 Z M204.19875,362.408614 C204.093281,362.475021 203.986836,362.528731 203.879414,362.569747 C203.771992,362.610763 203.624532,362.648849 203.437031,362.684005 L203.062031,362.754317 C202.710467,362.816818 202.458516,362.892989 202.306172,362.982833 C202.048358,363.135178 201.919453,363.371503 201.919453,363.691817 C201.919453,363.976975 201.998554,364.183028 202.156758,364.309982 C202.314962,364.436935 202.507343,364.500411 202.733906,364.500411 C203.093283,364.500411 203.424334,364.394944 203.72707,364.184005 C204.029806,363.973066 204.187031,363.588305 204.19875,363.029708 L204.19875,362.408614 Z M203.185078,361.629317 C203.493673,361.590255 203.714374,361.541427 203.847187,361.482833 C204.08547,361.38127 204.204609,361.223069 204.204609,361.008224 C204.204609,360.746504 204.11379,360.565841 203.932148,360.466232 C203.750507,360.366622 203.483908,360.316817 203.132344,360.316817 C202.73781,360.316817 202.458516,360.414473 202.294453,360.609786 C202.177265,360.754318 202.099141,360.949629 202.060078,361.195724 L200.44875,361.195724 C200.483906,360.637127 200.640155,360.178147 200.9175,359.818771 C201.358908,359.256268 202.116713,358.975021 203.190937,358.975021 C203.89016,358.975021 204.511247,359.113691 205.054219,359.391036 C205.59719,359.668381 205.868672,360.191814 205.868672,360.961349 L205.868672,363.891036 C205.868672,364.094162 205.872578,364.340254 205.880391,364.629317 C205.892109,364.848069 205.925312,364.996505 205.98,365.07463 C206.034688,365.152755 206.116718,365.217208 206.226094,365.267989 L206.226094,365.514083 L204.409687,365.514083 C204.358906,365.385176 204.32375,365.264084 204.304219,365.150802 C204.284687,365.03752 204.269062,364.908615 204.257344,364.764083 C204.026874,365.014084 203.761251,365.226973 203.460469,365.402755 C203.101092,365.609787 202.694846,365.713302 202.241719,365.713302 C201.663591,365.713302 201.186056,365.548264 200.809101,365.218185 C200.432146,364.888105 200.243672,364.420336 200.243672,363.814864 C200.243672,363.029704 200.546403,362.46135 201.151875,362.109786 C201.483908,361.918379 201.972184,361.781662 202.616719,361.69963 L203.185078,361.629317 Z M208.651875,363.475021 C208.687031,363.771897 208.763202,363.982832 208.880391,364.107833 C209.087423,364.33049 209.470231,364.441817 210.028828,364.441817 C210.356955,364.441817 210.617694,364.39299 210.811055,364.295333 C211.004415,364.197676 211.101094,364.051193 211.101094,363.85588 C211.101094,363.668379 211.022969,363.525802 210.866719,363.428146 C210.710468,363.330489 210.130396,363.162522 209.126484,362.924239 C208.403824,362.744551 207.894064,362.519944 207.597187,362.250411 C207.300311,361.984785 207.151875,361.601976 207.151875,361.101974 C207.151875,360.512127 207.383318,360.005296 207.846211,359.581466 C208.309104,359.157636 208.960464,358.945724 209.800312,358.945724 C210.597191,358.945724 211.246599,359.104902 211.748555,359.423263 C212.25051,359.741624 212.538593,360.291423 212.612812,361.072677 L210.942891,361.072677 C210.919453,360.857832 210.858907,360.687912 210.76125,360.562911 C210.577655,360.336348 210.265158,360.223067 209.82375,360.223067 C209.460467,360.223067 209.20168,360.279708 209.047383,360.392989 C208.893085,360.506271 208.815937,360.639082 208.815937,360.791427 C208.815937,360.982834 208.897968,361.121505 209.062031,361.207442 C209.226094,361.297287 209.806167,361.451582 210.802266,361.670333 C211.466331,361.826584 211.964373,362.06291 212.296406,362.379317 C212.624533,362.699632 212.788594,363.100018 212.788594,363.580489 C212.788594,364.213305 212.553244,364.729901 212.082539,365.130294 C211.611833,365.530687 210.884302,365.73088 209.899922,365.73088 C208.896011,365.73088 208.154807,365.518968 207.676289,365.095138 C207.197771,364.671308 206.958516,364.131274 206.958516,363.475021 L208.651875,363.475021 Z M213.368672,360.375411 L213.368672,359.185958 L214.259297,359.185958 L214.259297,357.404708 L215.911641,357.404708 L215.911641,359.185958 L216.94875,359.185958 L216.94875,360.375411 L215.911641,360.375411 L215.911641,363.750411 C215.911641,364.012131 215.944843,364.175216 216.01125,364.239669 C216.077656,364.304122 216.280779,364.336349 216.620625,364.336349 C216.671406,364.336349 216.725117,364.335372 216.781758,364.333419 C216.838399,364.331466 216.894062,364.328536 216.94875,364.32463 L216.94875,365.572677 L216.157734,365.601974 C215.368668,365.629318 214.829611,365.4926 214.540547,365.191817 C214.353046,365.00041 214.259297,364.705491 214.259297,364.307052 L214.259297,360.375411 L213.368672,360.375411 Z M221.489766,358.975021 C221.521016,358.975021 221.547383,358.975997 221.568867,358.97795 C221.590352,358.979903 221.638203,358.982833 221.712422,358.986739 L221.712422,360.697677 C221.606952,360.685958 221.513203,360.678146 221.431172,360.674239 C221.34914,360.670333 221.282735,360.66838 221.231953,360.66838 C220.560075,360.66838 220.108907,360.887128 219.878437,361.32463 C219.749531,361.570725 219.685078,361.949627 219.685078,362.461349 L219.685078,365.514083 L218.003437,365.514083 L218.003437,359.127364 L219.597187,359.127364 L219.597187,360.240646 C219.855001,359.814862 220.079608,359.52385 220.271016,359.367599 C220.583517,359.105879 220.989763,358.975021 221.489766,358.975021 Z M226.505391,361.41838 C226.47414,361.180098 226.394063,360.965256 226.265156,360.773849 C226.077655,360.516035 225.786642,360.38713 225.392109,360.38713 C224.829606,360.38713 224.444845,360.666424 224.237812,361.225021 C224.128437,361.521897 224.07375,361.916424 224.07375,362.408614 C224.07375,362.877367 224.128437,363.254316 224.237812,363.539474 C224.437032,364.070726 224.812028,364.336349 225.362812,364.336349 C225.753439,364.336349 226.03078,364.230881 226.194844,364.019942 C226.358907,363.809004 226.458515,363.535569 226.493672,363.19963 L228.19875,363.19963 C228.159687,363.707445 227.976095,364.187909 227.647969,364.641036 C227.124529,365.371509 226.349146,365.736739 225.321797,365.736739 C224.294448,365.736739 223.538596,365.432055 223.054219,364.822677 C222.569841,364.213299 222.327656,363.422291 222.327656,362.44963 C222.327656,361.351968 222.595232,360.498461 223.130391,359.889083 C223.665549,359.279705 224.403823,358.975021 225.345234,358.975021 C226.14602,358.975021 226.801286,359.154706 227.311055,359.514083 C227.820823,359.87346 228.122578,360.508219 228.216328,361.41838 L226.505391,361.41838 Z M232.23,364.336349 C232.718284,364.336349 233.09328,364.162522 233.355,363.814864 C233.61672,363.467206 233.747578,362.973071 233.747578,362.332442 C233.747578,361.691814 233.61672,361.198655 233.355,360.85295 C233.09328,360.507245 232.718284,360.334396 232.23,360.334396 C231.741716,360.334396 231.365743,360.507245 231.10207,360.85295 C230.838397,361.198655 230.706562,361.691814 230.706562,362.332442 C230.706562,362.973071 230.838397,363.467206 231.10207,363.814864 C231.365743,364.162522 231.741716,364.336349 232.23,364.336349 Z M235.499531,362.332442 C235.499531,363.269947 235.230003,364.071697 234.690937,364.737716 C234.151872,365.403735 233.333521,365.736739 232.235859,365.736739 C231.138198,365.736739 230.319846,365.403735 229.780781,364.737716 C229.241716,364.071697 228.972187,363.269947 228.972187,362.332442 C228.972187,361.410563 229.241716,360.611743 229.780781,359.935958 C230.319846,359.260173 231.138198,358.922286 232.235859,358.922286 C233.333521,358.922286 234.151872,359.260173 234.690937,359.935958 C235.230003,360.611743 235.499531,361.410563 235.499531,362.332442 Z M240.233906,358.975021 C240.894066,358.975021 241.434099,359.14787 241.854023,359.493575 C242.273947,359.83928 242.483906,360.412517 242.483906,361.213302 L242.483906,365.514083 L240.772969,365.514083 L240.772969,361.629317 C240.772969,361.293378 240.728047,361.035568 240.638203,360.85588 C240.47414,360.527753 240.161643,360.363692 239.700703,360.363692 C239.134294,360.363692 238.745626,360.603924 238.534687,361.084396 C238.425312,361.338303 238.370625,361.662519 238.370625,362.057052 L238.370625,365.514083 L236.706562,365.514083 L236.706562,359.139083 L238.317891,359.139083 L238.317891,360.070724 C238.532735,359.742597 238.735858,359.506271 238.927266,359.361739 C239.271017,359.103926 239.70656,358.975021 240.233906,358.975021 Z M246.380391,356.789474 C246.48586,356.789474 246.581562,356.792403 246.6675,356.798263 C246.753438,356.804122 246.870624,356.812911 247.019062,356.82463 L247.019062,358.184005 C246.925312,358.172286 246.768087,358.163497 246.547383,358.157638 C246.326678,358.151778 246.174336,358.200606 246.090351,358.304122 C246.006367,358.407638 245.964375,358.521895 245.964375,358.646896 L245.964375,359.185958 L247.060078,359.185958 L247.060078,360.363692 L245.964375,360.363692 L245.964375,365.514083 L244.300312,365.514083 L244.300312,360.363692 L243.368672,360.363692 L243.368672,359.185958 L244.282734,359.185958 L244.282734,358.775802 C244.282734,358.092205 244.397967,357.621506 244.628437,357.363692 C244.870626,356.980878 245.454605,356.789474 246.380391,356.789474 Z M247.991719,363.767989 L249.767109,363.767989 L249.767109,365.514083 L247.991719,365.514083 L247.991719,363.767989 Z M255.169453,361.41838 C255.138203,361.180098 255.058126,360.965256 254.929219,360.773849 C254.741718,360.516035 254.450705,360.38713 254.056172,360.38713 C253.493669,360.38713 253.108907,360.666424 252.901875,361.225021 C252.792499,361.521897 252.737812,361.916424 252.737812,362.408614 C252.737812,362.877367 252.792499,363.254316 252.901875,363.539474 C253.101095,364.070726 253.476091,364.336349 254.026875,364.336349 C254.417502,364.336349 254.694843,364.230881 254.858906,364.019942 C255.022969,363.809004 255.122578,363.535569 255.157734,363.19963 L256.862812,363.19963 C256.82375,363.707445 256.640158,364.187909 256.312031,364.641036 C255.788591,365.371509 255.013208,365.736739 253.985859,365.736739 C252.95851,365.736739 252.202659,365.432055 251.718281,364.822677 C251.233904,364.213299 250.991719,363.422291 250.991719,362.44963 C250.991719,361.351968 251.259294,360.498461 251.794453,359.889083 C252.329612,359.279705 253.067886,358.975021 254.009297,358.975021 C254.810082,358.975021 255.465349,359.154706 255.975117,359.514083 C256.484885,359.87346 256.78664,360.508219 256.880391,361.41838 L255.169453,361.41838 Z M260.894062,364.336349 C261.382346,364.336349 261.757342,364.162522 262.019062,363.814864 C262.280782,363.467206 262.411641,362.973071 262.411641,362.332442 C262.411641,361.691814 262.280782,361.198655 262.019062,360.85295 C261.757342,360.507245 261.382346,360.334396 260.894062,360.334396 C260.405779,360.334396 260.029806,360.507245 259.766133,360.85295 C259.50246,361.198655 259.370625,361.691814 259.370625,362.332442 C259.370625,362.973071 259.50246,363.467206 259.766133,363.814864 C260.029806,364.162522 260.405779,364.336349 260.894062,364.336349 Z M264.163594,362.332442 C264.163594,363.269947 263.894065,364.071697 263.355,364.737716 C262.815935,365.403735 261.997584,365.736739 260.899922,365.736739 C259.80226,365.736739 258.983909,365.403735 258.444844,364.737716 C257.905778,364.071697 257.63625,363.269947 257.63625,362.332442 C257.63625,361.410563 257.905778,360.611743 258.444844,359.935958 C258.983909,359.260173 259.80226,358.922286 260.899922,358.922286 C261.997584,358.922286 262.815935,359.260173 263.355,359.935958 C263.894065,360.611743 264.163594,361.410563 264.163594,362.332442 Z M272.495625,358.986739 C272.776876,358.986739 273.054217,359.041426 273.327656,359.150802 C273.601095,359.260177 273.849139,359.451582 274.071797,359.725021 C274.251485,359.947678 274.372578,360.221113 274.435078,360.545333 C274.474141,360.760178 274.493672,361.074628 274.493672,361.488692 L274.481953,365.514083 L272.771016,365.514083 L272.771016,361.447677 C272.771016,361.205488 272.731953,361.006271 272.653828,360.850021 C272.50539,360.553144 272.231955,360.404708 271.833516,360.404708 C271.372576,360.404708 271.05422,360.596112 270.878437,360.978927 C270.788593,361.182053 270.743672,361.426191 270.743672,361.711349 L270.743672,365.514083 L269.062031,365.514083 L269.062031,361.711349 C269.062031,361.332441 269.022969,361.057053 268.944844,360.885177 C268.804218,360.576582 268.52883,360.422286 268.118672,360.422286 C267.642107,360.422286 267.321798,360.576582 267.157734,360.885177 C267.06789,361.060959 267.022969,361.322675 267.022969,361.670333 L267.022969,365.514083 L265.329609,365.514083 L265.329609,359.139083 L266.952656,359.139083 L266.952656,360.070724 C267.159688,359.738691 267.354999,359.502365 267.538594,359.361739 C267.862814,359.111738 268.282732,358.986739 268.798359,358.986739 C269.286643,358.986739 269.68117,359.09416 269.981953,359.309005 C270.224142,359.508225 270.407734,359.764082 270.532734,360.076583 C270.751485,359.701581 271.022967,359.426193 271.347187,359.250411 C271.690939,359.074629 272.073748,358.986739 272.495625,358.986739 Z" id="noreastrconf.com-copy" fill="#FFFFFF" mask="url(#mask-2)" transform="translate(224.589375, 361.263107) rotate(-30.000000) translate(-224.589375, -361.263107) "></path>
        </g>
    </g>
</svg>